<svg width="1000" height="1000" xmlns="http://www.w3.org/2000/svg" fill="none"><defs><linearGradient y2="1" x2="1" y1="0" x1="0" id="svg_6"><stop offset="0.2" stop-opacity="1" stop-color="#57ebde" /><stop offset="1" stop-opacity="1" stop-color="#aefb2a" /></linearGradient></defs><g><circle id="svg_1" fill="url(#svg_6)" r="500" cy="500" cx="500" /><path id="svg_2" fill="#000000" d="m292.71923,252.05894l417.80114,-0.00255c14.78123,0 29.55181,2.08176 44.9875,8.98268c18.50314,8.2709 28.31472,21.3074 35.18922,30.94829c0.53474,0.75004 1.0349,1.52305 1.49781,2.31391c8.08232,13.79675 12.24852,28.69305 12.24852,44.71697c0,15.2254 -3.77778,31.81313 -12.24852,46.27063c-0.07981,0.14031 -0.16228,0.27553 -0.24476,0.41329l-263.96038,434.80925c-5.82097,9.58986 -16.53444,15.47032 -28.10455,15.43205c-11.57012,-0.03827 -22.24101,-5.99526 -27.99015,-15.62339l-259.11311,-433.88062c-0.07449,-0.11735 -0.14898,-0.23471 -0.22347,-0.35461c-5.93005,-9.37046 -15.10048,-23.86113 -16.7047,-42.56123c-1.47387,-17.19746 2.55665,-34.42809 11.56745,-49.36776c9.0108,-14.94222 22.57622,-26.88682 38.89251,-34.19848c17.49484,-7.83976 35.2238,-7.89843 46.4055,-7.89843zm174.89257,62.11342l-174.89257,0c-11.4903,0 -15.90126,0.67861 -18.98467,2.06135c-4.26463,1.90828 -7.84554,5.04877 -10.23991,9.0184c-2.39437,3.97218 -3.47715,8.57449 -3.08341,13.18191c0.22613,2.64046 1.34883,5.66105 7.97058,16.13362c0.13834,0.2194 0.27402,0.44135 0.40704,0.66331l198.82294,332.92559l0,-373.98417zm64.77562,0l0,375.62968l203.42811,-335.09919c2.29593,-4.00024 3.85227,-9.7812 3.85227,-15.68461c0,-4.78855 -1.0349,-8.94697 -3.34945,-13.23294c-2.42895,-3.34969 -3.90814,-5.12276 -5.14523,-6.33711c-1.0615,-1.03833 -1.87825,-1.59448 -3.03287,-2.10982c-4.81002,-2.15064 -9.73177,-3.16601 -17.61988,-3.16601l-178.13295,0z" fill-rule="evenodd"/></g></svg>